<!-- eye-closed.svg -->
<svg xmlns="http://www.w3.org/2000/svg" class="h-6 w-6 text-gray-600" fill="none" viewBox="0 0 24 24" stroke="currentColor">
  <!-- Bạn có thể tùy chỉnh nội dung SVG này theo thiết kế của mình -->
  <path stroke-linecap="round" stroke-linejoin="round" stroke-width="2" d="M13.875 18.825A10.05 10.05 0 0112 19c-4.477 0-8.268-2.943-9.542-7a10.05 10.05 0 011.658-3.07m2.2-2.2A9.977 9.977 0 0112 5c4.477 0 8.268 2.943 9.542 7a10.05 10.05 0 01-1.658 3.07m-2.2 2.2A9.977 9.977 0 0112 19c-1.657 0-3.205-.407-4.575-1.125" />
  <path stroke-linecap="round" stroke-linejoin="round" stroke-width="2" d="M15 12a3 3 0 11-6 0 3 3 0 016 0z" />
  <line x1="4" y1="4" x2="20" y2="20" stroke="currentColor" stroke-width="2" stroke-linecap="round" stroke-linejoin="round"/>
</svg>
